<?xml version="1.0" encoding="utf-8"?>
<!-- Generator: Adobe Illustrator 25.1.0, SVG Export Plug-In . SVG Version: 6.00 Build 0)  -->
<svg version="1.1" id="Layer_1" xmlns="http://www.w3.org/2000/svg" xmlns:xlink="http://www.w3.org/1999/xlink" x="0px" y="0px"
	 viewBox="0 0 46.3 46.6" style="enable-background:new 0 0 46.3 46.6;" xml:space="preserve">
<style type="text/css">
	.st0{fill:url(#SVGID_1_);stroke:#FFFFFF;stroke-width:2;stroke-miterlimit:10;}
	.st1{fill:#FFFFFF;}
</style>
<g>
	<g>
		<g>
			<g>
				<g>
					
						<linearGradient id="SVGID_1_" gradientUnits="userSpaceOnUse" x1="-300.0831" y1="220.7424" x2="-256.3967" y2="220.7424" gradientTransform="matrix(0 -1 1 0 -197.7258 -254.8871)">
						<stop  offset="0" style="stop-color:#4CD2EE"/>
						<stop  offset="0.5335" style="stop-color:#8193ED"/>
						<stop  offset="1" style="stop-color:#CA42E7"/>
					</linearGradient>
					<path class="st0" d="M44.9,7.6v31.5c0,3.4-2.8,6.1-6.1,6.1H7.3c-3.4,0-6.1-2.8-6.1-6.1V7.6c0-3.4,2.8-6.1,6.1-6.1h31.5
						C42.1,1.5,44.9,4.3,44.9,7.6z"/>
					<g>
						<path class="st1" d="M14.7,35.7h-1.2c-1.5,0-2.7-1.2-2.7-2.7V13.7c0-1.5,1.2-2.7,2.7-2.7h1.2c1.5,0,2.7,1.2,2.7,2.7V33
							C17.5,34.5,16.2,35.7,14.7,35.7z"/>
						<path class="st1" d="M23.6,35.7h-1.2c-1.5,0-2.7-1.2-2.7-2.7V19.7c0-1.5,1.2-2.7,2.7-2.7h1.2c1.5,0,2.7,1.2,2.7,2.7V33
							C26.4,34.5,25.2,35.7,23.6,35.7z"/>
						<path class="st1" d="M32.5,35.7h-1.2c-1.5,0-2.7-1.2-2.7-2.7V13.7c0-1.5,1.2-2.7,2.7-2.7h1.2c1.5,0,2.7,1.2,2.7,2.7V33
							C35.2,34.5,34,35.7,32.5,35.7z"/>
					</g>
				</g>
			</g>
		</g>
	</g>
</g>
</svg>
